<svg width="35" height="35" viewBox="0 0 35 35" fill="none" xmlns="http://www.w3.org/2000/svg">
<g clip-path="url(#clip0_403_13)">
<path d="M12.6108 10.2441C12.5444 10.1587 12.4606 10.0883 12.3649 10.0378C12.2692 9.98725 12.1639 9.95764 12.0559 9.95094C11.9479 9.94423 11.8397 9.96059 11.7385 9.99891C11.6373 10.0372 11.5454 10.0966 11.4689 10.1732L10.3057 11.3376C9.76232 11.8821 9.56207 12.6527 9.79945 13.3288C10.7847 16.1274 12.3873 18.6682 14.4884 20.7628C16.5831 22.864 19.1239 24.4666 21.9224 25.4518C22.5986 25.6892 23.3692 25.489 23.9137 24.9456L25.0769 23.7823C25.1535 23.7059 25.2129 23.614 25.2512 23.5128C25.2896 23.4116 25.3059 23.3034 25.2992 23.1954C25.2925 23.0874 25.2629 22.9821 25.2124 22.8864C25.1618 22.7907 25.0915 22.7069 25.0061 22.6405L22.4107 20.6222C22.3194 20.5514 22.2133 20.5023 22.1002 20.4785C21.9872 20.4547 21.8703 20.4569 21.7582 20.485L19.2944 21.1003C18.9656 21.1825 18.621 21.1782 18.2944 21.0877C17.9677 20.9972 17.67 20.8237 17.4303 20.584L14.6673 17.8198C14.4274 17.5803 14.2537 17.2826 14.163 16.9559C14.0723 16.6293 14.0678 16.2847 14.1498 15.9557L14.7663 13.492C14.7943 13.3799 14.7965 13.263 14.7728 13.1499C14.749 13.0369 14.6999 12.9307 14.6291 12.8395L12.6108 10.2441ZM10.6196 9.32496C10.8164 9.12803 11.053 8.97523 11.3134 8.87672C11.5739 8.7782 11.8523 8.73622 12.1302 8.75357C12.4081 8.77091 12.6792 8.84718 12.9254 8.97731C13.1715 9.10744 13.3872 9.28846 13.5581 9.50834L15.5763 12.1026C15.9464 12.5785 16.0769 13.1983 15.9307 13.7833L15.3153 16.2471C15.2835 16.3747 15.2852 16.5084 15.3203 16.6351C15.3554 16.7619 15.4227 16.8774 15.5156 16.9705L18.2797 19.7346C18.3729 19.8277 18.4886 19.8951 18.6156 19.9302C18.7425 19.9652 18.8764 19.9669 19.0042 19.9348L21.4668 19.3195C21.7555 19.2473 22.0568 19.2417 22.348 19.3031C22.6392 19.3645 22.9126 19.4912 23.1476 19.6738L25.7418 21.6921C26.6744 22.4177 26.7599 23.7958 25.9252 24.6295L24.7619 25.7927C23.9294 26.6252 22.6852 26.9908 21.5253 26.5825C18.5567 25.5379 15.8613 23.8384 13.6391 21.61C11.4108 19.3881 9.71126 16.6931 8.66657 13.7248C8.25932 12.5661 8.62495 11.3207 9.45745 10.4882L10.6207 9.32496H10.6196Z" fill="#037B35"/>
</g>
<circle cx="17.5" cy="17.75" r="16.3125" stroke="#037B35" stroke-width="1.125"/>
<defs>
<clipPath id="clip0_403_13">
<rect width="18" height="18" fill="white" transform="translate(8.5 8.75)"/>
</clipPath>
</defs>
</svg>
